<svg id="Layer_1" data-name="Layer 1" xmlns="http://www.w3.org/2000/svg" viewBox="0 0 168.75 112.5">
    <defs>
        <style>.cls-1{fill:#da8532;}.cls-2{fill:#ededed;}.cls-3{fill:#51aa24;}.cls-4{fill:#1816ba;fill-rule:evenodd;}
        </style>
    </defs>
    <rect class="cls-1" width="168.75" height="37.5"/>
    <rect class="cls-2" y="37.5" width="168.75" height="37.5"/>
    <rect class="cls-3" y="75" width="168.75" height="37.5"/>
    <path class="cls-4"
          d="M84.37,41.05a15.2,15.2,0,1,0,15.2,15.2A15.22,15.22,0,0,0,84.37,41.05ZM93,66.39a.83.83,0,0,0-.07-.13.66.66,0,0,0-.92-.12.66.66,0,0,0-.13.92,1.14,1.14,0,0,0,.11.11A12.46,12.46,0,0,1,90,68.27a.42.42,0,0,0,0-.15.65.65,0,0,0-.85-.35.65.65,0,0,0-.36.86.57.57,0,0,0,.08.13,12.86,12.86,0,0,1-2.13.57.75.75,0,0,0,0-.15.66.66,0,0,0-.74-.57.65.65,0,0,0-.56.74.42.42,0,0,0,0,.15c-.37,0-.73,0-1.11,0s-.73,0-1.1,0a.42.42,0,0,0,0-.15.65.65,0,0,0-.56-.74.66.66,0,0,0-.74.57.75.75,0,0,0,0,.15,12.86,12.86,0,0,1-2.13-.57.57.57,0,0,0,.08-.13.65.65,0,0,0-.36-.86.65.65,0,0,0-.85.35.42.42,0,0,0,0,.15,12.46,12.46,0,0,1-1.91-1.1,1.14,1.14,0,0,0,.11-.11.66.66,0,0,0-.13-.92.67.67,0,0,0-.92.12.83.83,0,0,0-.07.13,13.43,13.43,0,0,1-1.55-1.56l.12-.07a.66.66,0,0,0-.8-1,.94.94,0,0,0-.1.1,13.29,13.29,0,0,1-1.11-1.9l.15,0a.65.65,0,1,0-.5-1.21l-.14.07a12.35,12.35,0,0,1-.57-2.13h.16a.64.64,0,0,0,.56-.73.65.65,0,0,0-.73-.57l-.15,0c0-.36,0-.73,0-1.1s0-.74,0-1.1l.15,0a.65.65,0,0,0,.73-.57.64.64,0,0,0-.56-.73h-.16a12.35,12.35,0,0,1,.57-2.13l.14.07a.65.65,0,1,0,.5-1.21l-.15,0a13.29,13.29,0,0,1,1.11-1.9.94.94,0,0,0,.1.1.66.66,0,0,0,.8-1l-.12-.07a13.43,13.43,0,0,1,1.55-1.56.54.54,0,0,0,.07.13.67.67,0,0,0,.92.12.66.66,0,0,0,.13-.92,1.14,1.14,0,0,0-.11-.11,12.46,12.46,0,0,1,1.91-1.1.42.42,0,0,0,0,.15.65.65,0,0,0,.85.35.65.65,0,0,0,.36-.86.57.57,0,0,0-.08-.13A12.86,12.86,0,0,1,82,43.17a.75.75,0,0,0,0,.15.66.66,0,0,0,.74.57.65.65,0,0,0,.56-.74.42.42,0,0,0,0-.15c.37,0,.73,0,1.1,0s.74,0,1.11,0a.42.42,0,0,0,0,.15.65.65,0,0,0,.56.74.66.66,0,0,0,.74-.57.75.75,0,0,0,0-.15,12.86,12.86,0,0,1,2.13.57.57.57,0,0,0-.08.13.65.65,0,0,0,.36.86.65.65,0,0,0,.85-.35.42.42,0,0,0,0-.15A12.46,12.46,0,0,1,92,45.33a1.14,1.14,0,0,0-.11.11.66.66,0,0,0,.13.92.66.66,0,0,0,.92-.12.54.54,0,0,0,.07-.13,13.43,13.43,0,0,1,1.55,1.56l-.12.07a.66.66,0,1,0,.8,1,.94.94,0,0,0,.1-.1,13.29,13.29,0,0,1,1.11,1.9l-.15,0a.65.65,0,1,0,.5,1.21l.14-.07a12.35,12.35,0,0,1,.57,2.13H97.3a.64.64,0,0,0-.56.73.65.65,0,0,0,.73.57l.15,0c0,.36,0,.73,0,1.1s0,.74,0,1.1l-.15,0a.65.65,0,0,0-.73.57.64.64,0,0,0,.56.73h.16a12.35,12.35,0,0,1-.57,2.13l-.14-.07a.65.65,0,1,0-.5,1.21l.15,0a13.29,13.29,0,0,1-1.11,1.9.94.94,0,0,0-.1-.1.66.66,0,1,0-.8,1l.12.07A13.43,13.43,0,0,1,93,66.39Zm-6.15-8.54a2.78,2.78,0,0,1-.26.34l1.86,1.45,5.25,5.89-5.89-5.25-1.46-1.85a2.91,2.91,0,0,1-.33.26l1.41,1.88,3.55,7.05L86.61,61l-.93-2.16a3.52,3.52,0,0,1-.39.16l.88,2.18,1.6,7.73L85.3,61.44,85,59.11a3,3,0,0,1-.43,0l.28,2.34-.44,7.88-.46-7.88.29-2.34a3,3,0,0,1-.43,0l-.33,2.33L81,68.93l1.6-7.73L83.46,59a3.52,3.52,0,0,1-.39-.16L82.14,61l-4.33,6.6,3.55-7.05,1.41-1.88a2.91,2.91,0,0,1-.33-.26L81,60.28l-5.89,5.25,5.25-5.89,1.86-1.45a2.78,2.78,0,0,1-.26-.34l-1.89,1.41-7,3.55,6.59-4.32,2.17-.93a3.2,3.2,0,0,1-.16-.39L79.42,58,71.7,59.65l7.49-2.48,2.33-.33a3,3,0,0,1-.06-.42l-2.34.28-7.87-.45,7.87-.45,2.34.28a3,3,0,0,1,.06-.42l-2.33-.33L71.7,52.85l7.72,1.61,2.19.87a3.2,3.2,0,0,1,.16-.39L79.6,54,73,49.69l7,3.55,1.89,1.41a2.78,2.78,0,0,1,.26-.34l-1.86-1.45L75.09,47,81,52.22l1.46,1.85a2.91,2.91,0,0,1,.33-.26l-1.41-1.88-3.55-7,4.33,6.6.93,2.16a3.52,3.52,0,0,1,.39-.16l-.88-2.18L81,43.57l2.47,7.49.33,2.33a3,3,0,0,1,.43,0L83.92,51l.46-7.88L84.82,51l-.28,2.34a3,3,0,0,1,.43,0l.33-2.33,2.47-7.49-1.6,7.73-.88,2.18a3.52,3.52,0,0,1,.39.16l.93-2.16,4.33-6.6-3.55,7L86,53.81a2.91,2.91,0,0,1,.33.26l1.46-1.85L93.66,47l-5.25,5.89-1.86,1.45a2.78,2.78,0,0,1,.26.34l1.89-1.41,7-3.55L89.15,54,87,54.94a3.2,3.2,0,0,1,.16.39l2.19-.87,7.72-1.61-7.49,2.48-2.33.33a3,3,0,0,1,.06.42l2.34-.28,7.87.45-7.87.45-2.34-.28a3,3,0,0,1-.06.42l2.33.33,7.49,2.48L89.33,58l-2.19-.87a3.2,3.2,0,0,1-.16.39l2.17.93,6.59,4.32-7-3.55Z"/>
</svg>
